# xmcd CD database file
#
# Track frame offsets:
#	151
#	14273
#	37828
#	52072
#	63144
#	78046
#	92720
#	106543
#	118857
#	130877
#	144563
#	157795
#	168965
#	182741
#	193947
#	208210
#	221749
#	236490
#	247741
#	259981
#
# Disc length: 3609 seconds
#
# Revision: 0
# Processed by: cddbd v1.5.1PL0 Copyright (c) Steve Scherf et al.
# Submitted via: CDex 1.51
#
DISCID=0c0e1714
DTITLE=Ella Fitzgerald - Mr. Paganini
DYEAR=2003
DGENRE=Jazz
TTITLE0=Smooth Sailing
TTITLE1=(If you can't sing) You'll have to swing it (Mr. Paganini)
TTITLE2=Basin street blues
TTITLE3=Goody goody
TTITLE4=I've got the world on a string
TTITLE5=Ain't nobody business (with Louis Jordan)
TTITLE6=I hadn't anyone till you
TTITLE7=Baby, it's cold outside (with Louis Jordan)
TTITLE8=In the evening (when the sun goes down)
TTITLE9=Dream a little longer
TTITLE10=I'm gonna wash that man right outa my head
TTITLE11=Happy talk
TTITLE12=That's my desire
TTITLE13=That old feeling
TTITLE14=Don't you think I ought to know
TTITLE15=No sense
TTITLE16=A sunday kind of love
TTITLE17=You're breakin' in a new heart
TTITLE18=My baby likes to be-bop (and I like to bebop too)
TTITLE19=I want to learn about love
EXTD=YEAR: 2003
EXTT0=
EXTT1=
EXTT2=
EXTT3=
EXTT4=
EXTT5=
EXTT6=
EXTT7=
EXTT8=
EXTT9=
EXTT10=
EXTT11=
EXTT12=
EXTT13=
EXTT14=
EXTT15=
EXTT16=
EXTT17=
EXTT18=
EXTT19=
PLAYORDER=
